<svg width="105" height="146" viewBox="0 0 105 146" fill="none" xmlns="http://www.w3.org/2000/svg">
<path d="M83.169 129.973C83.3154 130.846 82.9374 131.846 81.9466 132.937C80.9606 134.022 79.425 135.131 77.4301 136.189C73.4451 138.304 67.73 140.165 61.232 141.254C54.734 142.343 48.7244 142.447 44.2678 141.748C42.0367 141.397 40.2236 140.85 38.9376 140.145C37.6452 139.437 36.9619 138.615 36.8155 137.742C36.6691 136.868 37.0471 135.869 38.0379 134.778C39.0239 133.692 40.5595 132.584 42.5544 131.525C46.5394 129.411 52.2545 127.549 58.7525 126.46C65.2505 125.371 71.2601 125.267 75.7167 125.967C77.9478 126.317 79.7609 126.864 81.0469 127.569C82.3393 128.277 83.0226 129.099 83.169 129.973Z" fill="#C4C4C4" stroke="black"/>
<mask id="path-2-inside-1_1_39" fill="white">
<path fill-rule="evenodd" clip-rule="evenodd" d="M64.7181 141.22C67.4319 139 68.9041 135.219 68.2401 131.257C67.8361 128.847 66.7058 126.757 65.1415 125.217C75.5946 124.341 83.757 126.166 84.3772 129.866C85.0566 133.919 76.4459 138.796 64.7181 141.22ZM55.5778 142.504C45.4601 143.243 37.644 141.418 37.0376 137.8C36.4917 134.544 41.9426 130.756 50.189 128.135C49.368 130.005 49.0646 132.178 49.4384 134.409C50.0726 138.192 52.4955 141.186 55.5778 142.504Z"/>
</mask>
<path fill-rule="evenodd" clip-rule="evenodd" d="M64.7181 141.22C67.4319 139 68.9041 135.219 68.2401 131.257C67.8361 128.847 66.7058 126.757 65.1415 125.217C75.5946 124.341 83.757 126.166 84.3772 129.866C85.0566 133.919 76.4459 138.796 64.7181 141.22ZM55.5778 142.504C45.4601 143.243 37.644 141.418 37.0376 137.8C36.4917 134.544 41.9426 130.756 50.189 128.135C49.368 130.005 49.0646 132.178 49.4384 134.409C50.0726 138.192 52.4955 141.186 55.5778 142.504Z" fill="black"/>
<path d="M68.2401 131.257L67.2539 131.423L68.2401 131.257ZM64.7181 141.22L64.0849 140.446L64.9205 142.2L64.7181 141.22ZM65.1415 125.217L65.0581 124.22L62.8887 124.402L64.4399 125.929L65.1415 125.217ZM84.3772 129.866L85.3635 129.701V129.701L84.3772 129.866ZM55.5778 142.504L55.6506 143.502L55.9711 141.585L55.5778 142.504ZM37.0376 137.8L38.0238 137.635L37.0376 137.8ZM50.189 128.135L51.1046 128.537L51.9936 126.512L49.8861 127.182L50.189 128.135ZM49.4384 134.409L50.4247 134.243L49.4384 134.409ZM67.2539 131.423C67.8614 135.047 66.5081 138.464 64.0849 140.446L65.3513 141.994C68.3557 139.537 69.9468 135.39 69.2264 131.092L67.2539 131.423ZM64.4399 125.929C65.854 127.322 66.8847 129.22 67.2539 131.423L69.2264 131.092C68.7875 128.474 67.5576 126.192 65.8431 124.504L64.4399 125.929ZM65.225 126.213C70.3861 125.781 74.9272 126.021 78.2167 126.798C79.8648 127.188 81.1444 127.7 82.025 128.287C82.9042 128.874 83.2972 129.472 83.391 130.031L85.3635 129.701C85.1471 128.41 84.2872 127.392 83.135 126.623C81.984 125.855 80.4534 125.272 78.6767 124.852C75.1166 124.011 70.35 123.777 65.0581 124.22L65.225 126.213ZM83.391 130.031C83.4936 130.643 83.2708 131.42 82.4757 132.366C81.6845 133.308 80.4145 134.304 78.7025 135.287C75.2865 137.248 70.3097 139.043 64.5156 140.241L64.9205 142.2C70.8543 140.973 76.0468 139.118 79.6983 137.021C81.52 135.975 83.0083 134.841 84.0069 133.652C85.0018 132.469 85.6006 131.115 85.3635 129.701L83.391 130.031ZM55.505 141.507C50.5105 141.872 46.1402 141.598 42.9814 140.815C41.399 140.423 40.1743 139.917 39.3324 139.34C38.493 138.766 38.1155 138.182 38.0238 137.635L36.0513 137.966C36.2628 139.227 37.0898 140.229 38.2026 140.991C39.313 141.751 40.7883 142.333 42.5005 142.757C45.9307 143.606 50.5274 143.876 55.6506 143.502L55.505 141.507ZM38.0238 137.635C37.941 137.141 38.0679 136.547 38.5374 135.835C39.011 135.117 39.7968 134.339 40.9022 133.539C43.1108 131.942 46.4265 130.38 50.4918 129.088L49.8861 127.182C45.7051 128.511 42.1722 130.153 39.7302 131.919C38.5103 132.801 37.5203 133.744 36.8677 134.734C36.211 135.73 35.8612 136.831 36.0513 137.966L38.0238 137.635ZM50.4247 134.243C50.083 132.205 50.3617 130.229 51.1046 128.537L49.2733 127.733C48.3743 129.781 48.0461 132.151 48.4522 134.574L50.4247 134.243ZM55.9711 141.585C53.2141 140.405 51.0047 137.704 50.4247 134.243L48.4522 134.574C49.1404 138.68 51.7768 141.966 55.1844 143.424L55.9711 141.585Z" fill="black" mask="url(#path-2-inside-1_1_39)"/>
<path d="M2.39032 1.80486C-4.82009 16.0476 17.7654 41.9898 29.9595 53.1805C40.3863 64.0322 57.3166 77.1898 41.6234 43.0071C22.0069 0.278854 8.75244 -0.738486 2.39032 1.80486Z" fill="#4EA6AA" stroke="black"/>
<path d="M71.5 28.5C72.7 31.7 72 39.1667 71.5 42.5C71.5 51 74.2 64.2 85 49C95.8 33.8 90.8333 19 87 13.5C81.3333 17.1667 70.3 25.3 71.5 28.5Z" fill="#4EA6AA" stroke="black"/>
<path d="M9.5 1.5C19.5 6.7 33.3333 33.3333 39 46C42.8333 53.6667 49 64.1 43 44.5C35.5 20 19 5 9.5 1.5Z" fill="#FFFBFB"/>
<path d="M51 36C59.8 40 78.6667 22.6667 87 13.5C81 8 79 6.5 73.5 5.5C52 9.5 48 25.5 51 36Z" fill="#FFFBFB"/>
<path d="M9.5 1.5C19.5 6.7 33.3333 33.3333 39 46C42.8333 53.6667 49 64.1 43 44.5C35.5 20 19 5 9.5 1.5Z" stroke="black"/>
<path d="M51 36C59.8 40 78.6667 22.6667 87 13.5C81 8 79 6.5 73.5 5.5C52 9.5 48 25.5 51 36Z" stroke="black"/>
<path d="M27 62.5C31.8 46.1 49.3333 40.6667 57.5 40C79.5 38.8 91 54.5 94 62.5C95.3333 67.3333 96.1 79.5 88.5 89.5C79 102 49 104 42 98.5C35 93 21 83 27 62.5Z" fill="#FFFBFB" stroke="black"/>
<path d="M85.5 72.5C80.5 101.5 43.8333 96.8333 31.5 88C31.5 91 44 106 65 101.5C87.5 96.6786 90 90 95.5 66.5C93 64 91.5 46 67.5 40.5C83.5 46 90.5 59 85.5 72.5Z" fill="#C4C4C4"/>
<path d="M28 81.5C35.5 89 44 91.5 44 91.5L49.5 87.5L55 93.5L61.5 90C61.5 90 76 91 86.5 87.5M28 81.5C28 81.5 30.5 92.5 44 99C57.5 105.5 77 97 77 97C77 97 83 95 88.5 90M28 81.5C27 79.5 25.3 73.2 26.5 64C28 52.5 44.5 40 58.5 40C72.5 40 87 46 95 65" stroke="black"/>
<path d="M99 79C101 71.4 97.1667 66.1667 95 64.5C87 64.5 85.5 75.5 85.5 77.5C85.5 78.9142 85.5 90.5 88.5 90C91.5 89.5 96.5 88.5 99 79Z" fill="black"/>
<path d="M28.5 83C27.3333 83.5 24.6 83.6 23 80C21 75.5 22 66.5 23 65C24 63.5 24.5 62.5 26.5 62.5M95 64.5C97.1667 66.1667 101 71.4 99 79C96.5 88.5 91.5 89.5 88.5 90C85.5 90.5 85.5 78.9142 85.5 77.5C85.5 75.5 87 64.5 95 64.5Z" stroke="black"/>
<path d="M28.5 83C25.7 79 26 67.6667 26.5 62.5C22.5 62.1 21.8333 69 22 72.5C21.3333 76 21.7 83 28.5 83Z" fill="black"/>
<path d="M49 106C42.6 105.6 42 100.833 42.5 98.5C59 105.5 70 99.5 82 94.5C84.5 103 77 104 75.5 105C74 106 57.5 108 49 106Z" fill="black"/>
<path d="M28.5 83C25.7 79 26 67.6667 26.5 62.5C22.5 62.1 21.8333 69 22 72.5C21.3333 76 21.7 83 28.5 83Z" stroke="black"/>
<path d="M49 106C42.6 105.6 42 100.833 42.5 98.5C59 105.5 70 99.5 82 94.5C84.5 103 77 104 75.5 105C74 106 57.5 108 49 106Z" stroke="black"/>
<circle cx="46" cy="74" r="3.5" fill="black" stroke="#479DA8"/>
<circle cx="63" cy="75" r="3.5" fill="black" stroke="#43939E"/>
<path d="M104 119.5C102 110.7 95.5 109.833 92.5 110.5C93 117.5 93 132.5 95 133.5C97 134.5 106.5 130.5 104 119.5Z" fill="#C4C4C4" stroke="black"/>
<path d="M51 142C41.8 142 42.5 117 44 104.5C50.5 107.5 67.2 110.9 82 100.5C95.6 109.7 97.6667 122.333 97 127.5C96.6667 131.667 93.6 140.2 84 141C72 142 64.9429 139.5 58.4715 135.5C57.4713 139.153 55.3388 142 51 142Z" fill="#C4C4C4"/>
<path d="M59 120C58.6886 121.245 60.1222 129.471 58.4715 135.5M58.4715 135.5C57.4713 139.153 55.3388 142 51 142C41.8 142 42.5 117 44 104.5C50.5 107.5 67.2 110.9 82 100.5C95.6 109.7 97.6667 122.333 97 127.5C96.6667 131.667 93.6 140.2 84 141C72 142 64.9429 139.5 58.4715 135.5Z" stroke="black"/>
<path d="M58.5 131.5C54.9 135.9 46.8333 132.833 44 131.5C44 136.5 47 142 51 142C55 142 58 139 58.5 131.5Z" fill="black" stroke="black"/>
<path d="M78.959 135.226C75.5671 139.09 69.2246 135.503 67.0218 134C66.5352 138.737 68.4698 144.201 71.7628 144.54C75.0558 144.878 77.8175 142.289 78.959 135.226Z" fill="black" stroke="black"/>
<path d="M71 109.5C67.3333 119.333 62.2 140.1 71 144.5C81 146 83 117.5 81.5 109.5" stroke="black"/>
<path d="M41.5 101C45.5 105 69.5 107.5 83.5 97" stroke="#FFFCFC"/>
<rect x="56.0264" y="102.534" width="9" height="4" rx="2" transform="rotate(-2.97716 56.0264 102.534)" fill="#4EA6AA"/>
<path d="M43.1118 130.537C42.6075 130.537 43.616 139.573 50.1711 141C46.6414 139.098 45.1287 135.768 43.1118 130.537Z" fill="#FFFBFB"/>
<path d="M81.4336 102C89.5014 111.195 101.704 131.583 85.9718 139.573C98.5776 135.768 101.603 116.268 81.4336 102Z" fill="#FFFBFB"/>
<path fill-rule="evenodd" clip-rule="evenodd" d="M95.3198 111.001C98.0572 110.961 102.159 112.569 103.57 119.386C105.283 127.663 100.226 131.604 97.4568 132.227C99.8137 130.66 101.489 126.657 101.489 121.967C101.489 115.952 98.7337 111.068 95.3198 111.001ZM94.7717 111.031C94.4926 111.059 94.2336 111.104 94 111.161C94.0012 111.18 94.0025 111.199 94.0037 111.218C94.2546 111.129 94.5109 111.066 94.7717 111.031Z" fill="white"/>
</svg>
