<svg width="720" height="206" viewBox="0 0 720 206" fill="none" xmlns="http://www.w3.org/2000/svg">
<path d="M108.169 159.973C108.315 160.846 107.937 161.846 106.947 162.937C105.961 164.022 104.425 165.131 102.43 166.189C98.4451 168.304 92.73 170.165 86.232 171.254C79.734 172.343 73.7244 172.447 69.2678 171.748C67.0367 171.397 65.2236 170.85 63.9376 170.145C62.6452 169.437 61.9619 168.615 61.8155 167.742C61.6691 166.868 62.0471 165.869 63.0379 164.778C64.0239 163.692 65.5595 162.584 67.5544 161.525C71.5394 159.411 77.2545 157.549 83.7525 156.46C90.2505 155.371 96.2601 155.267 100.717 155.967C102.948 156.317 104.761 156.864 106.047 157.569C107.339 158.277 108.023 159.099 108.169 159.973Z" fill="#C4C4C4" stroke="black"/>
<mask id="path-2-inside-1_109_2" fill="white">
<path fill-rule="evenodd" clip-rule="evenodd" d="M89.7181 171.22C92.4319 169 93.9041 165.219 93.2401 161.257C92.8361 158.847 91.7058 156.757 90.1415 155.217C100.595 154.341 108.757 156.166 109.377 159.866C110.057 163.919 101.446 168.796 89.7181 171.22ZM80.5778 172.504C70.4601 173.243 62.644 171.418 62.0376 167.8C61.4917 164.544 66.9426 160.756 75.189 158.135C74.368 160.005 74.0646 162.178 74.4384 164.409C75.0726 168.192 77.4955 171.186 80.5778 172.504Z"/>
</mask>
<path fill-rule="evenodd" clip-rule="evenodd" d="M89.7181 171.22C92.4319 169 93.9041 165.219 93.2401 161.257C92.8361 158.847 91.7058 156.757 90.1415 155.217C100.595 154.341 108.757 156.166 109.377 159.866C110.057 163.919 101.446 168.796 89.7181 171.22ZM80.5778 172.504C70.4601 173.243 62.644 171.418 62.0376 167.8C61.4917 164.544 66.9426 160.756 75.189 158.135C74.368 160.005 74.0646 162.178 74.4384 164.409C75.0726 168.192 77.4955 171.186 80.5778 172.504Z" fill="black"/>
<path d="M93.2401 161.257L92.2539 161.423L93.2401 161.257ZM89.7181 171.22L89.0849 170.446L89.9205 172.2L89.7181 171.22ZM90.1415 155.217L90.0581 154.22L87.8887 154.402L89.4399 155.929L90.1415 155.217ZM109.377 159.866L110.363 159.701V159.701L109.377 159.866ZM80.5778 172.504L80.6506 173.502L80.9711 171.585L80.5778 172.504ZM62.0376 167.8L63.0238 167.635L62.0376 167.8ZM75.189 158.135L76.1046 158.537L76.9936 156.512L74.8861 157.182L75.189 158.135ZM74.4384 164.409L75.4247 164.243L74.4384 164.409ZM92.2539 161.423C92.8614 165.047 91.5081 168.464 89.0849 170.446L90.3513 171.994C93.3557 169.537 94.9468 165.39 94.2264 161.092L92.2539 161.423ZM89.4399 155.929C90.854 157.322 91.8847 159.22 92.2539 161.423L94.2264 161.092C93.7875 158.474 92.5576 156.192 90.8431 154.504L89.4399 155.929ZM90.225 156.213C95.3861 155.781 99.9272 156.021 103.217 156.798C104.865 157.188 106.144 157.7 107.025 158.287C107.904 158.874 108.297 159.472 108.391 160.031L110.363 159.701C110.147 158.41 109.287 157.392 108.135 156.623C106.984 155.855 105.453 155.272 103.677 154.852C100.117 154.011 95.35 153.777 90.0581 154.22L90.225 156.213ZM108.391 160.031C108.494 160.643 108.271 161.42 107.476 162.366C106.684 163.308 105.414 164.304 103.702 165.287C100.287 167.248 95.3097 169.043 89.5156 170.241L89.9205 172.2C95.8543 170.973 101.047 169.118 104.698 167.021C106.52 165.975 108.008 164.841 109.007 163.652C110.002 162.469 110.601 161.115 110.363 159.701L108.391 160.031ZM80.505 171.507C75.5105 171.872 71.1402 171.598 67.9814 170.815C66.399 170.423 65.1743 169.917 64.3324 169.34C63.493 168.766 63.1155 168.182 63.0238 167.635L61.0513 167.966C61.2628 169.227 62.0898 170.229 63.2026 170.991C64.313 171.751 65.7883 172.333 67.5005 172.757C70.9307 173.606 75.5274 173.876 80.6506 173.502L80.505 171.507ZM63.0238 167.635C62.941 167.141 63.0679 166.547 63.5374 165.835C64.011 165.117 64.7968 164.339 65.9022 163.539C68.1108 161.942 71.4265 160.38 75.4918 159.088L74.8861 157.182C70.7051 158.511 67.1722 160.153 64.7302 161.919C63.5103 162.801 62.5203 163.744 61.8677 164.734C61.211 165.73 60.8612 166.831 61.0513 167.966L63.0238 167.635ZM75.4247 164.243C75.083 162.205 75.3617 160.229 76.1046 158.537L74.2733 157.733C73.3743 159.781 73.0461 162.151 73.4522 164.574L75.4247 164.243ZM80.9711 171.585C78.2141 170.405 76.0047 167.704 75.4247 164.243L73.4522 164.574C74.1404 168.68 76.7768 171.966 80.1844 173.424L80.9711 171.585Z" fill="black" mask="url(#path-2-inside-1_109_2)"/>
<path d="M27.3903 31.8049C20.1799 46.0476 42.7654 71.9898 54.9595 83.1805C65.3863 94.0322 82.3166 107.19 66.6234 73.0071C47.0069 30.2789 33.7524 29.2615 27.3903 31.8049Z" fill="#4EA6AA" stroke="black"/>
<path d="M96.5 58.5C97.7 61.7 97 69.1667 96.5 72.5C96.5 81 99.2 94.2 110 79C120.8 63.8 115.833 49 112 43.5C106.333 47.1667 95.3 55.3 96.5 58.5Z" fill="#4EA6AA" stroke="black"/>
<path d="M34.5 31.5C44.5 36.7 58.3333 63.3333 64 76C67.8333 83.6667 74 94.1 68 74.5C60.5 50 44 35 34.5 31.5Z" fill="#FFFBFB"/>
<path d="M76 66C84.8 70 103.667 52.6667 112 43.5C106 38 104 36.5 98.5 35.5C77 39.5 73 55.5 76 66Z" fill="#FFFBFB"/>
<path d="M34.5 31.5C44.5 36.7 58.3333 63.3333 64 76C67.8333 83.6667 74 94.1 68 74.5C60.5 50 44 35 34.5 31.5Z" stroke="black"/>
<path d="M76 66C84.8 70 103.667 52.6667 112 43.5C106 38 104 36.5 98.5 35.5C77 39.5 73 55.5 76 66Z" stroke="black"/>
<path d="M52 92.5C56.8 76.1 74.3333 70.6667 82.5 70C104.5 68.8 116 84.5 119 92.5C120.333 97.3333 121.1 109.5 113.5 119.5C104 132 74 134 67 128.5C60 123 46 113 52 92.5Z" fill="#FFFBFB" stroke="black"/>
<path d="M110.5 102.5C105.5 131.5 68.8333 126.833 56.5 118C56.5 121 69 136 90 131.5C112.5 126.679 115 120 120.5 96.5C118 94 116.5 76 92.5 70.5C108.5 76 115.5 89 110.5 102.5Z" fill="#C4C4C4"/>
<path d="M53 111.5C60.5 119 69 121.5 69 121.5L74.5 117.5L80 123.5L86.5 120C86.5 120 101 121 111.5 117.5M53 111.5C53 111.5 55.5 122.5 69 129C82.5 135.5 102 127 102 127C102 127 108 125 113.5 120M53 111.5C52 109.5 50.3 103.2 51.5 94C53 82.5 69.5 70 83.5 70C97.5 70 112 76 120 95" stroke="black"/>
<path d="M124 109C126 101.4 122.167 96.1667 120 94.5C112 94.5 110.5 105.5 110.5 107.5C110.5 108.914 110.5 120.5 113.5 120C116.5 119.5 121.5 118.5 124 109Z" fill="black"/>
<path d="M53.5 113C52.3333 113.5 49.6 113.6 48 110C46 105.5 47 96.5 48 95C49 93.5 49.5 92.5 51.5 92.5M120 94.5C122.167 96.1667 126 101.4 124 109C121.5 118.5 116.5 119.5 113.5 120C110.5 120.5 110.5 108.914 110.5 107.5C110.5 105.5 112 94.5 120 94.5Z" stroke="black"/>
<path d="M53.5 113C50.7 109 51 97.6667 51.5 92.5C47.5 92.1 46.8333 99 47 102.5C46.3333 106 46.7 113 53.5 113Z" fill="black"/>
<path d="M74 136C67.6 135.6 67 130.833 67.5 128.5C84 135.5 95 129.5 107 124.5C109.5 133 102 134 100.5 135C99 136 82.5 138 74 136Z" fill="black"/>
<path d="M53.5 113C50.7 109 51 97.6667 51.5 92.5C47.5 92.1 46.8333 99 47 102.5C46.3333 106 46.7 113 53.5 113Z" stroke="black"/>
<path d="M74 136C67.6 135.6 67 130.833 67.5 128.5C84 135.5 95 129.5 107 124.5C109.5 133 102 134 100.5 135C99 136 82.5 138 74 136Z" stroke="black"/>
<circle cx="71" cy="104" r="3.5" fill="black" stroke="#479DA8"/>
<circle cx="88" cy="105" r="3.5" fill="black" stroke="#43939E"/>
<path d="M129 149.5C127 140.7 120.5 139.833 117.5 140.5C118 147.5 118 162.5 120 163.5C122 164.5 131.5 160.5 129 149.5Z" fill="#C4C4C4" stroke="black"/>
<path d="M76 172C66.8 172 67.5 147 69 134.5C75.5 137.5 92.2 140.9 107 130.5C120.6 139.7 122.667 152.333 122 157.5C121.667 161.667 118.6 170.2 109 171C97 172 89.9429 169.5 83.4715 165.5C82.4713 169.153 80.3388 172 76 172Z" fill="#C4C4C4"/>
<path d="M84 150C83.6886 151.245 85.1222 159.471 83.4715 165.5M83.4715 165.5C82.4713 169.153 80.3388 172 76 172C66.8 172 67.5 147 69 134.5C75.5 137.5 92.2 140.9 107 130.5C120.6 139.7 122.667 152.333 122 157.5C121.667 161.667 118.6 170.2 109 171C97 172 89.9429 169.5 83.4715 165.5Z" stroke="black"/>
<path d="M83.5 161.5C79.9 165.9 71.8333 162.833 69 161.5C69 166.5 72 172 76 172C80 172 83 169 83.5 161.5Z" fill="black" stroke="black"/>
<path d="M103.959 165.226C100.567 169.09 94.2246 165.503 92.0218 164C91.5352 168.737 93.4698 174.201 96.7628 174.54C100.056 174.878 102.818 172.289 103.959 165.226Z" fill="black" stroke="black"/>
<path d="M96 139.5C92.3333 149.333 87.2 170.1 96 174.5C106 176 108 147.5 106.5 139.5" stroke="black"/>
<path d="M66.5 131C70.5 135 94.5 137.5 108.5 127" stroke="#FFFCFC"/>
<rect x="81.0264" y="132.534" width="9" height="4" rx="2" transform="rotate(-2.97716 81.0264 132.534)" fill="#4EA6AA"/>
<path d="M68.1118 160.537C67.6075 160.537 68.616 169.573 75.1711 171C71.6414 169.098 70.1287 165.768 68.1118 160.537Z" fill="#FFFBFB"/>
<path d="M106.434 132C114.501 141.195 126.704 161.583 110.972 169.573C123.578 165.768 126.603 146.268 106.434 132Z" fill="#FFFBFB"/>
<path fill-rule="evenodd" clip-rule="evenodd" d="M120.32 141.001C123.057 140.961 127.159 142.569 128.57 149.386C130.283 157.663 125.226 161.604 122.457 162.227C124.814 160.66 126.489 156.657 126.489 151.967C126.489 145.952 123.734 141.068 120.32 141.001ZM119.772 141.031C119.493 141.059 119.234 141.104 119 141.161C119.001 141.18 119.002 141.199 119.004 141.218C119.255 141.129 119.511 141.066 119.772 141.031Z" fill="white"/>
</svg>
